<svg xmlns="http://www.w3.org/2000/svg" width="31.224" height="31.217" viewBox="0 0 31.224 31.217">
  <path id="instagram" d="M15.54,39.43a8,8,0,1,0,8,8A7.991,7.991,0,0,0,15.54,39.43Zm0,13.207a5.2,5.2,0,1,1,5.2-5.2,5.213,5.213,0,0,1-5.2,5.2ZM25.738,39.1a1.867,1.867,0,1,1-1.867-1.867A1.862,1.862,0,0,1,25.738,39.1ZM31.039,41a9.238,9.238,0,0,0-2.522-6.541,9.3,9.3,0,0,0-6.541-2.522c-2.577-.146-10.3-.146-12.88,0a9.286,9.286,0,0,0-6.541,2.515A9.269,9.269,0,0,0,.035,40.99c-.146,2.577-.146,10.3,0,12.88a9.238,9.238,0,0,0,2.522,6.541A9.311,9.311,0,0,0,9.1,62.932c2.577.146,10.3.146,12.88,0a9.238,9.238,0,0,0,6.541-2.522,9.3,9.3,0,0,0,2.522-6.541c.146-2.577.146-10.3,0-12.873ZM27.71,56.635A5.268,5.268,0,0,1,24.742,59.6c-2.055.815-6.931.627-9.2.627s-7.154.181-9.2-.627a5.268,5.268,0,0,1-2.967-2.967c-.815-2.055-.627-6.931-.627-9.2s-.181-7.154.627-9.2a5.268,5.268,0,0,1,2.967-2.967c2.055-.815,6.931-.627,9.2-.627s7.154-.181,9.2.627a5.268,5.268,0,0,1,2.967,2.967c.815,2.055.627,6.931.627,9.2S28.525,54.587,27.71,56.635Z" transform="translate(0.075 -31.825)"/>
</svg>
