<svg xmlns="http://www.w3.org/2000/svg" width="37.374" height="23.43" viewBox="0 0 37.374 23.43">
  <path id="behance" d="M15.053,85.9a4.924,4.924,0,0,0,3.14-4.8c0-4.581-3.413-5.7-7.351-5.7H0v23H11.147c4.179,0,8.1-2,8.1-6.677,0-2.887-1.369-5.022-4.2-5.82Zm-10-6.573H9.8c1.823,0,3.465.513,3.465,2.628,0,1.953-1.278,2.738-3.082,2.738H5.055Zm5.4,15.164h-5.4V88.156h5.509c2.226,0,3.634.928,3.634,3.283C14.2,93.762,12.516,94.489,10.459,94.489ZM33.721,78.871H24.4V76.607h9.324Zm3.653,11.439c0-4.925-2.881-9.032-8.1-9.032-5.074,0-8.519,3.815-8.519,8.811,0,5.184,3.264,8.74,8.519,8.74,3.977,0,6.553-1.791,7.793-5.6H33.027C32.592,94.651,30.8,95.4,29.412,95.4c-2.68,0-4.088-1.57-4.088-4.237h12.01C37.354,90.895,37.374,90.6,37.374,90.311ZM25.331,88.286a3.574,3.574,0,0,1,3.8-3.556c2.3,0,3.452,1.35,3.647,3.556Z" transform="translate(0 -75.4)"/>
</svg>
