<svg xmlns="http://www.w3.org/2000/svg" width="31.215" height="31.215" viewBox="0 0 31.215 31.215">
  <path id="dribbble" d="M23.607,8A15.607,15.607,0,1,0,39.215,23.607,15.625,15.625,0,0,0,23.607,8Zm10.319,7.2a13.268,13.268,0,0,1,3.01,8.3,31.154,31.154,0,0,0-9.283-.429c-.362-.884-.7-1.661-1.172-2.619A17.758,17.758,0,0,0,33.927,15.2Zm-1.482-1.542a15.052,15.052,0,0,1-6.987,4.816,71.159,71.159,0,0,0-4.974-7.8A13.3,13.3,0,0,1,32.445,13.656Zm-14.5-2.093a85.062,85.062,0,0,1,4.943,7.71A49.725,49.725,0,0,1,10.558,20.9,13.38,13.38,0,0,1,17.94,11.563ZM10.276,23.628c0-.136,0-.272.007-.407a49.176,49.176,0,0,0,13.7-1.9c.382.747.746,1.505,1.081,2.262A20.649,20.649,0,0,0,13.7,32.541,13.278,13.278,0,0,1,10.276,23.628Zm5.148,10.517C16.817,31.3,20.6,27.623,25.971,25.79A55.414,55.414,0,0,1,28.815,35.9,13.3,13.3,0,0,1,15.425,34.145Zm15.631.534a57.538,57.538,0,0,0-2.59-9.505,19.567,19.567,0,0,1,8.3.57A13.354,13.354,0,0,1,31.056,34.679Z" transform="translate(-8 -8)"/>
</svg>
