<svg xmlns="http://www.w3.org/2000/svg" width="48.269" height="30.26" viewBox="0 0 48.269 30.26">
  <path id="behance" d="M19.441,88.959a6.359,6.359,0,0,0,4.056-6.2C23.5,76.841,19.09,75.4,14,75.4H0v29.7H14.4c5.4,0,10.467-2.589,10.467-8.623,0-3.729-1.768-6.486-5.422-7.517ZM6.528,80.47h6.126c2.355,0,4.475.662,4.475,3.394,0,2.522-1.651,3.536-3.98,3.536H6.528Zm6.98,19.584H6.528V91.875h7.115c2.874,0,4.693,1.2,4.693,4.24C18.335,99.115,16.165,100.054,13.508,100.054ZM43.551,79.883H31.509V76.959H43.551Zm4.718,14.774c0-6.36-3.721-11.665-10.467-11.665-6.553,0-11,4.927-11,11.38,0,6.7,4.215,11.288,11,11.288,5.137,0,8.464-2.313,10.064-7.232H42.654c-.561,1.835-2.874,2.807-4.668,2.807-3.461,0-5.279-2.028-5.279-5.472H48.218C48.243,95.411,48.269,95.034,48.269,94.657ZM32.715,92.043a4.616,4.616,0,0,1,4.9-4.592c2.966,0,4.458,1.743,4.71,4.592Z" transform="translate(0 -75.4)" fill="#464646"/>
</svg>
