<svg xmlns="http://www.w3.org/2000/svg" xmlns:xlink="http://www.w3.org/1999/xlink" width="410" height="350" viewBox="0 0 410 350">
  <defs>
    <clipPath id="clip-path">
      <rect width="410" height="350" fill="none"/>
    </clipPath>
  </defs>
  <g id="Repeat_Grid_4" data-name="Repeat Grid 4" clip-path="url(#clip-path)">
    <g transform="translate(-1529 -293)">
      <rect id="Rectangle_8" data-name="Rectangle 8" width="10" height="10" transform="translate(1529 293)" fill="#5a5a5a"/>
    </g>
    <g transform="translate(-1499 -293)">
      <rect id="Rectangle_8-2" data-name="Rectangle 8" width="10" height="10" transform="translate(1529 293)" fill="#5a5a5a"/>
    </g>
    <g transform="translate(-1469 -293)">
      <rect id="Rectangle_8-3" data-name="Rectangle 8" width="10" height="10" transform="translate(1529 293)" fill="#5a5a5a"/>
    </g>
    <g transform="translate(-1439 -293)">
      <rect id="Rectangle_8-4" data-name="Rectangle 8" width="10" height="10" transform="translate(1529 293)" fill="#5a5a5a"/>
    </g>
    <g transform="translate(-1409 -293)">
      <rect id="Rectangle_8-5" data-name="Rectangle 8" width="10" height="10" transform="translate(1529 293)" fill="#5a5a5a"/>
    </g>
    <g transform="translate(-1379 -293)">
      <rect id="Rectangle_8-6" data-name="Rectangle 8" width="10" height="10" transform="translate(1529 293)" fill="#5a5a5a"/>
    </g>
    <g transform="translate(-1349 -293)">
      <rect id="Rectangle_8-7" data-name="Rectangle 8" width="10" height="10" transform="translate(1529 293)" fill="#5a5a5a"/>
    </g>
    <g transform="translate(-1319 -293)">
      <rect id="Rectangle_8-8" data-name="Rectangle 8" width="10" height="10" transform="translate(1529 293)" fill="#5a5a5a"/>
    </g>
    <g transform="translate(-1289 -293)">
      <rect id="Rectangle_8-9" data-name="Rectangle 8" width="10" height="10" transform="translate(1529 293)" fill="#5a5a5a"/>
    </g>
    <g transform="translate(-1259 -293)">
      <rect id="Rectangle_8-10" data-name="Rectangle 8" width="10" height="10" transform="translate(1529 293)" fill="#5a5a5a"/>
    </g>
    <g transform="translate(-1229 -293)">
      <rect id="Rectangle_8-11" data-name="Rectangle 8" width="10" height="10" transform="translate(1529 293)" fill="#5a5a5a"/>
    </g>
    <g transform="translate(-1199 -293)">
      <rect id="Rectangle_8-12" data-name="Rectangle 8" width="10" height="10" transform="translate(1529 293)" fill="#5a5a5a"/>
    </g>
    <g transform="translate(-1169 -293)">
      <rect id="Rectangle_8-13" data-name="Rectangle 8" width="10" height="10" transform="translate(1529 293)" fill="#5a5a5a"/>
    </g>
    <g transform="translate(-1139 -293)">
      <rect id="Rectangle_8-14" data-name="Rectangle 8" width="10" height="10" transform="translate(1529 293)" fill="#5a5a5a"/>
    </g>
    <g transform="translate(-1529 -263)">
      <rect id="Rectangle_8-15" data-name="Rectangle 8" width="10" height="10" transform="translate(1529 293)" fill="#5a5a5a"/>
    </g>
    <g transform="translate(-1499 -263)">
      <rect id="Rectangle_8-16" data-name="Rectangle 8" width="10" height="10" transform="translate(1529 293)" fill="#5a5a5a"/>
    </g>
    <g transform="translate(-1469 -263)">
      <rect id="Rectangle_8-17" data-name="Rectangle 8" width="10" height="10" transform="translate(1529 293)" fill="#5a5a5a"/>
    </g>
    <g transform="translate(-1439 -263)">
      <rect id="Rectangle_8-18" data-name="Rectangle 8" width="10" height="10" transform="translate(1529 293)" fill="#5a5a5a"/>
    </g>
    <g transform="translate(-1409 -263)">
      <rect id="Rectangle_8-19" data-name="Rectangle 8" width="10" height="10" transform="translate(1529 293)" fill="#5a5a5a"/>
    </g>
    <g transform="translate(-1379 -263)">
      <rect id="Rectangle_8-20" data-name="Rectangle 8" width="10" height="10" transform="translate(1529 293)" fill="#5a5a5a"/>
    </g>
    <g transform="translate(-1349 -263)">
      <rect id="Rectangle_8-21" data-name="Rectangle 8" width="10" height="10" transform="translate(1529 293)" fill="#5a5a5a"/>
    </g>
    <g transform="translate(-1319 -263)">
      <rect id="Rectangle_8-22" data-name="Rectangle 8" width="10" height="10" transform="translate(1529 293)" fill="#5a5a5a"/>
    </g>
    <g transform="translate(-1289 -263)">
      <rect id="Rectangle_8-23" data-name="Rectangle 8" width="10" height="10" transform="translate(1529 293)" fill="#5a5a5a"/>
    </g>
    <g transform="translate(-1259 -263)">
      <rect id="Rectangle_8-24" data-name="Rectangle 8" width="10" height="10" transform="translate(1529 293)" fill="#5a5a5a"/>
    </g>
    <g transform="translate(-1229 -263)">
      <rect id="Rectangle_8-25" data-name="Rectangle 8" width="10" height="10" transform="translate(1529 293)" fill="#5a5a5a"/>
    </g>
    <g transform="translate(-1199 -263)">
      <rect id="Rectangle_8-26" data-name="Rectangle 8" width="10" height="10" transform="translate(1529 293)" fill="#5a5a5a"/>
    </g>
    <g transform="translate(-1169 -263)">
      <rect id="Rectangle_8-27" data-name="Rectangle 8" width="10" height="10" transform="translate(1529 293)" fill="#5a5a5a"/>
    </g>
    <g transform="translate(-1139 -263)">
      <rect id="Rectangle_8-28" data-name="Rectangle 8" width="10" height="10" transform="translate(1529 293)" fill="#5a5a5a"/>
    </g>
    <g transform="translate(-1529 -233)">
      <rect id="Rectangle_8-29" data-name="Rectangle 8" width="10" height="10" transform="translate(1529 293)" fill="#5a5a5a"/>
    </g>
    <g transform="translate(-1499 -233)">
      <rect id="Rectangle_8-30" data-name="Rectangle 8" width="10" height="10" transform="translate(1529 293)" fill="#5a5a5a"/>
    </g>
    <g transform="translate(-1469 -233)">
      <rect id="Rectangle_8-31" data-name="Rectangle 8" width="10" height="10" transform="translate(1529 293)" fill="#5a5a5a"/>
    </g>
    <g transform="translate(-1439 -233)">
      <rect id="Rectangle_8-32" data-name="Rectangle 8" width="10" height="10" transform="translate(1529 293)" fill="#5a5a5a"/>
    </g>
    <g transform="translate(-1409 -233)">
      <rect id="Rectangle_8-33" data-name="Rectangle 8" width="10" height="10" transform="translate(1529 293)" fill="#5a5a5a"/>
    </g>
    <g transform="translate(-1379 -233)">
      <rect id="Rectangle_8-34" data-name="Rectangle 8" width="10" height="10" transform="translate(1529 293)" fill="#5a5a5a"/>
    </g>
    <g transform="translate(-1349 -233)">
      <rect id="Rectangle_8-35" data-name="Rectangle 8" width="10" height="10" transform="translate(1529 293)" fill="#5a5a5a"/>
    </g>
    <g transform="translate(-1319 -233)">
      <rect id="Rectangle_8-36" data-name="Rectangle 8" width="10" height="10" transform="translate(1529 293)" fill="#5a5a5a"/>
    </g>
    <g transform="translate(-1289 -233)">
      <rect id="Rectangle_8-37" data-name="Rectangle 8" width="10" height="10" transform="translate(1529 293)" fill="#5a5a5a"/>
    </g>
    <g transform="translate(-1259 -233)">
      <rect id="Rectangle_8-38" data-name="Rectangle 8" width="10" height="10" transform="translate(1529 293)" fill="#5a5a5a"/>
    </g>
    <g transform="translate(-1229 -233)">
      <rect id="Rectangle_8-39" data-name="Rectangle 8" width="10" height="10" transform="translate(1529 293)" fill="#5a5a5a"/>
    </g>
    <g transform="translate(-1199 -233)">
      <rect id="Rectangle_8-40" data-name="Rectangle 8" width="10" height="10" transform="translate(1529 293)" fill="#5a5a5a"/>
    </g>
    <g transform="translate(-1169 -233)">
      <rect id="Rectangle_8-41" data-name="Rectangle 8" width="10" height="10" transform="translate(1529 293)" fill="#5a5a5a"/>
    </g>
    <g transform="translate(-1139 -233)">
      <rect id="Rectangle_8-42" data-name="Rectangle 8" width="10" height="10" transform="translate(1529 293)" fill="#5a5a5a"/>
    </g>
    <g transform="translate(-1529 -203)">
      <rect id="Rectangle_8-43" data-name="Rectangle 8" width="10" height="10" transform="translate(1529 293)" fill="#5a5a5a"/>
    </g>
    <g transform="translate(-1499 -203)">
      <rect id="Rectangle_8-44" data-name="Rectangle 8" width="10" height="10" transform="translate(1529 293)" fill="#5a5a5a"/>
    </g>
    <g transform="translate(-1469 -203)">
      <rect id="Rectangle_8-45" data-name="Rectangle 8" width="10" height="10" transform="translate(1529 293)" fill="#5a5a5a"/>
    </g>
    <g transform="translate(-1439 -203)">
      <rect id="Rectangle_8-46" data-name="Rectangle 8" width="10" height="10" transform="translate(1529 293)" fill="#5a5a5a"/>
    </g>
    <g transform="translate(-1409 -203)">
      <rect id="Rectangle_8-47" data-name="Rectangle 8" width="10" height="10" transform="translate(1529 293)" fill="#5a5a5a"/>
    </g>
    <g transform="translate(-1379 -203)">
      <rect id="Rectangle_8-48" data-name="Rectangle 8" width="10" height="10" transform="translate(1529 293)" fill="#5a5a5a"/>
    </g>
    <g transform="translate(-1349 -203)">
      <rect id="Rectangle_8-49" data-name="Rectangle 8" width="10" height="10" transform="translate(1529 293)" fill="#5a5a5a"/>
    </g>
    <g transform="translate(-1319 -203)">
      <rect id="Rectangle_8-50" data-name="Rectangle 8" width="10" height="10" transform="translate(1529 293)" fill="#5a5a5a"/>
    </g>
    <g transform="translate(-1289 -203)">
      <rect id="Rectangle_8-51" data-name="Rectangle 8" width="10" height="10" transform="translate(1529 293)" fill="#5a5a5a"/>
    </g>
    <g transform="translate(-1259 -203)">
      <rect id="Rectangle_8-52" data-name="Rectangle 8" width="10" height="10" transform="translate(1529 293)" fill="#5a5a5a"/>
    </g>
    <g transform="translate(-1229 -203)">
      <rect id="Rectangle_8-53" data-name="Rectangle 8" width="10" height="10" transform="translate(1529 293)" fill="#5a5a5a"/>
    </g>
    <g transform="translate(-1199 -203)">
      <rect id="Rectangle_8-54" data-name="Rectangle 8" width="10" height="10" transform="translate(1529 293)" fill="#5a5a5a"/>
    </g>
    <g transform="translate(-1169 -203)">
      <rect id="Rectangle_8-55" data-name="Rectangle 8" width="10" height="10" transform="translate(1529 293)" fill="#5a5a5a"/>
    </g>
    <g transform="translate(-1139 -203)">
      <rect id="Rectangle_8-56" data-name="Rectangle 8" width="10" height="10" transform="translate(1529 293)" fill="#5a5a5a"/>
    </g>
    <g transform="translate(-1529 -173)">
      <rect id="Rectangle_8-57" data-name="Rectangle 8" width="10" height="10" transform="translate(1529 293)" fill="#5a5a5a"/>
    </g>
    <g transform="translate(-1499 -173)">
      <rect id="Rectangle_8-58" data-name="Rectangle 8" width="10" height="10" transform="translate(1529 293)" fill="#5a5a5a"/>
    </g>
    <g transform="translate(-1469 -173)">
      <rect id="Rectangle_8-59" data-name="Rectangle 8" width="10" height="10" transform="translate(1529 293)" fill="#5a5a5a"/>
    </g>
    <g transform="translate(-1439 -173)">
      <rect id="Rectangle_8-60" data-name="Rectangle 8" width="10" height="10" transform="translate(1529 293)" fill="#5a5a5a"/>
    </g>
    <g transform="translate(-1409 -173)">
      <rect id="Rectangle_8-61" data-name="Rectangle 8" width="10" height="10" transform="translate(1529 293)" fill="#5a5a5a"/>
    </g>
    <g transform="translate(-1379 -173)">
      <rect id="Rectangle_8-62" data-name="Rectangle 8" width="10" height="10" transform="translate(1529 293)" fill="#5a5a5a"/>
    </g>
    <g transform="translate(-1349 -173)">
      <rect id="Rectangle_8-63" data-name="Rectangle 8" width="10" height="10" transform="translate(1529 293)" fill="#5a5a5a"/>
    </g>
    <g transform="translate(-1319 -173)">
      <rect id="Rectangle_8-64" data-name="Rectangle 8" width="10" height="10" transform="translate(1529 293)" fill="#5a5a5a"/>
    </g>
    <g transform="translate(-1289 -173)">
      <rect id="Rectangle_8-65" data-name="Rectangle 8" width="10" height="10" transform="translate(1529 293)" fill="#5a5a5a"/>
    </g>
    <g transform="translate(-1259 -173)">
      <rect id="Rectangle_8-66" data-name="Rectangle 8" width="10" height="10" transform="translate(1529 293)" fill="#5a5a5a"/>
    </g>
    <g transform="translate(-1229 -173)">
      <rect id="Rectangle_8-67" data-name="Rectangle 8" width="10" height="10" transform="translate(1529 293)" fill="#5a5a5a"/>
    </g>
    <g transform="translate(-1199 -173)">
      <rect id="Rectangle_8-68" data-name="Rectangle 8" width="10" height="10" transform="translate(1529 293)" fill="#5a5a5a"/>
    </g>
    <g transform="translate(-1169 -173)">
      <rect id="Rectangle_8-69" data-name="Rectangle 8" width="10" height="10" transform="translate(1529 293)" fill="#5a5a5a"/>
    </g>
    <g transform="translate(-1139 -173)">
      <rect id="Rectangle_8-70" data-name="Rectangle 8" width="10" height="10" transform="translate(1529 293)" fill="#5a5a5a"/>
    </g>
    <g transform="translate(-1529 -143)">
      <rect id="Rectangle_8-71" data-name="Rectangle 8" width="10" height="10" transform="translate(1529 293)" fill="#5a5a5a"/>
    </g>
    <g transform="translate(-1499 -143)">
      <rect id="Rectangle_8-72" data-name="Rectangle 8" width="10" height="10" transform="translate(1529 293)" fill="#5a5a5a"/>
    </g>
    <g transform="translate(-1469 -143)">
      <rect id="Rectangle_8-73" data-name="Rectangle 8" width="10" height="10" transform="translate(1529 293)" fill="#5a5a5a"/>
    </g>
    <g transform="translate(-1439 -143)">
      <rect id="Rectangle_8-74" data-name="Rectangle 8" width="10" height="10" transform="translate(1529 293)" fill="#5a5a5a"/>
    </g>
    <g transform="translate(-1409 -143)">
      <rect id="Rectangle_8-75" data-name="Rectangle 8" width="10" height="10" transform="translate(1529 293)" fill="#5a5a5a"/>
    </g>
    <g transform="translate(-1379 -143)">
      <rect id="Rectangle_8-76" data-name="Rectangle 8" width="10" height="10" transform="translate(1529 293)" fill="#5a5a5a"/>
    </g>
    <g transform="translate(-1349 -143)">
      <rect id="Rectangle_8-77" data-name="Rectangle 8" width="10" height="10" transform="translate(1529 293)" fill="#5a5a5a"/>
    </g>
    <g transform="translate(-1319 -143)">
      <rect id="Rectangle_8-78" data-name="Rectangle 8" width="10" height="10" transform="translate(1529 293)" fill="#5a5a5a"/>
    </g>
    <g transform="translate(-1289 -143)">
      <rect id="Rectangle_8-79" data-name="Rectangle 8" width="10" height="10" transform="translate(1529 293)" fill="#5a5a5a"/>
    </g>
    <g transform="translate(-1259 -143)">
      <rect id="Rectangle_8-80" data-name="Rectangle 8" width="10" height="10" transform="translate(1529 293)" fill="#5a5a5a"/>
    </g>
    <g transform="translate(-1229 -143)">
      <rect id="Rectangle_8-81" data-name="Rectangle 8" width="10" height="10" transform="translate(1529 293)" fill="#5a5a5a"/>
    </g>
    <g transform="translate(-1199 -143)">
      <rect id="Rectangle_8-82" data-name="Rectangle 8" width="10" height="10" transform="translate(1529 293)" fill="#5a5a5a"/>
    </g>
    <g transform="translate(-1169 -143)">
      <rect id="Rectangle_8-83" data-name="Rectangle 8" width="10" height="10" transform="translate(1529 293)" fill="#5a5a5a"/>
    </g>
    <g transform="translate(-1139 -143)">
      <rect id="Rectangle_8-84" data-name="Rectangle 8" width="10" height="10" transform="translate(1529 293)" fill="#5a5a5a"/>
    </g>
    <g transform="translate(-1529 -113)">
      <rect id="Rectangle_8-85" data-name="Rectangle 8" width="10" height="10" transform="translate(1529 293)" fill="#5a5a5a"/>
    </g>
    <g transform="translate(-1499 -113)">
      <rect id="Rectangle_8-86" data-name="Rectangle 8" width="10" height="10" transform="translate(1529 293)" fill="#5a5a5a"/>
    </g>
    <g transform="translate(-1469 -113)">
      <rect id="Rectangle_8-87" data-name="Rectangle 8" width="10" height="10" transform="translate(1529 293)" fill="#5a5a5a"/>
    </g>
    <g transform="translate(-1439 -113)">
      <rect id="Rectangle_8-88" data-name="Rectangle 8" width="10" height="10" transform="translate(1529 293)" fill="#5a5a5a"/>
    </g>
    <g transform="translate(-1409 -113)">
      <rect id="Rectangle_8-89" data-name="Rectangle 8" width="10" height="10" transform="translate(1529 293)" fill="#5a5a5a"/>
    </g>
    <g transform="translate(-1379 -113)">
      <rect id="Rectangle_8-90" data-name="Rectangle 8" width="10" height="10" transform="translate(1529 293)" fill="#5a5a5a"/>
    </g>
    <g transform="translate(-1349 -113)">
      <rect id="Rectangle_8-91" data-name="Rectangle 8" width="10" height="10" transform="translate(1529 293)" fill="#5a5a5a"/>
    </g>
    <g transform="translate(-1319 -113)">
      <rect id="Rectangle_8-92" data-name="Rectangle 8" width="10" height="10" transform="translate(1529 293)" fill="#5a5a5a"/>
    </g>
    <g transform="translate(-1289 -113)">
      <rect id="Rectangle_8-93" data-name="Rectangle 8" width="10" height="10" transform="translate(1529 293)" fill="#5a5a5a"/>
    </g>
    <g transform="translate(-1259 -113)">
      <rect id="Rectangle_8-94" data-name="Rectangle 8" width="10" height="10" transform="translate(1529 293)" fill="#5a5a5a"/>
    </g>
    <g transform="translate(-1229 -113)">
      <rect id="Rectangle_8-95" data-name="Rectangle 8" width="10" height="10" transform="translate(1529 293)" fill="#5a5a5a"/>
    </g>
    <g transform="translate(-1199 -113)">
      <rect id="Rectangle_8-96" data-name="Rectangle 8" width="10" height="10" transform="translate(1529 293)" fill="#5a5a5a"/>
    </g>
    <g transform="translate(-1169 -113)">
      <rect id="Rectangle_8-97" data-name="Rectangle 8" width="10" height="10" transform="translate(1529 293)" fill="#5a5a5a"/>
    </g>
    <g transform="translate(-1139 -113)">
      <rect id="Rectangle_8-98" data-name="Rectangle 8" width="10" height="10" transform="translate(1529 293)" fill="#5a5a5a"/>
    </g>
    <g transform="translate(-1529 -83)">
      <rect id="Rectangle_8-99" data-name="Rectangle 8" width="10" height="10" transform="translate(1529 293)" fill="#5a5a5a"/>
    </g>
    <g transform="translate(-1499 -83)">
      <rect id="Rectangle_8-100" data-name="Rectangle 8" width="10" height="10" transform="translate(1529 293)" fill="#5a5a5a"/>
    </g>
    <g transform="translate(-1469 -83)">
      <rect id="Rectangle_8-101" data-name="Rectangle 8" width="10" height="10" transform="translate(1529 293)" fill="#5a5a5a"/>
    </g>
    <g transform="translate(-1439 -83)">
      <rect id="Rectangle_8-102" data-name="Rectangle 8" width="10" height="10" transform="translate(1529 293)" fill="#5a5a5a"/>
    </g>
    <g transform="translate(-1409 -83)">
      <rect id="Rectangle_8-103" data-name="Rectangle 8" width="10" height="10" transform="translate(1529 293)" fill="#5a5a5a"/>
    </g>
    <g transform="translate(-1379 -83)">
      <rect id="Rectangle_8-104" data-name="Rectangle 8" width="10" height="10" transform="translate(1529 293)" fill="#5a5a5a"/>
    </g>
    <g transform="translate(-1349 -83)">
      <rect id="Rectangle_8-105" data-name="Rectangle 8" width="10" height="10" transform="translate(1529 293)" fill="#5a5a5a"/>
    </g>
    <g transform="translate(-1319 -83)">
      <rect id="Rectangle_8-106" data-name="Rectangle 8" width="10" height="10" transform="translate(1529 293)" fill="#5a5a5a"/>
    </g>
    <g transform="translate(-1289 -83)">
      <rect id="Rectangle_8-107" data-name="Rectangle 8" width="10" height="10" transform="translate(1529 293)" fill="#5a5a5a"/>
    </g>
    <g transform="translate(-1259 -83)">
      <rect id="Rectangle_8-108" data-name="Rectangle 8" width="10" height="10" transform="translate(1529 293)" fill="#5a5a5a"/>
    </g>
    <g transform="translate(-1229 -83)">
      <rect id="Rectangle_8-109" data-name="Rectangle 8" width="10" height="10" transform="translate(1529 293)" fill="#5a5a5a"/>
    </g>
    <g transform="translate(-1199 -83)">
      <rect id="Rectangle_8-110" data-name="Rectangle 8" width="10" height="10" transform="translate(1529 293)" fill="#5a5a5a"/>
    </g>
    <g transform="translate(-1169 -83)">
      <rect id="Rectangle_8-111" data-name="Rectangle 8" width="10" height="10" transform="translate(1529 293)" fill="#5a5a5a"/>
    </g>
    <g transform="translate(-1139 -83)">
      <rect id="Rectangle_8-112" data-name="Rectangle 8" width="10" height="10" transform="translate(1529 293)" fill="#5a5a5a"/>
    </g>
    <g transform="translate(-1529 -53)">
      <rect id="Rectangle_8-113" data-name="Rectangle 8" width="10" height="10" transform="translate(1529 293)" fill="#5a5a5a"/>
    </g>
    <g transform="translate(-1499 -53)">
      <rect id="Rectangle_8-114" data-name="Rectangle 8" width="10" height="10" transform="translate(1529 293)" fill="#5a5a5a"/>
    </g>
    <g transform="translate(-1469 -53)">
      <rect id="Rectangle_8-115" data-name="Rectangle 8" width="10" height="10" transform="translate(1529 293)" fill="#5a5a5a"/>
    </g>
    <g transform="translate(-1439 -53)">
      <rect id="Rectangle_8-116" data-name="Rectangle 8" width="10" height="10" transform="translate(1529 293)" fill="#5a5a5a"/>
    </g>
    <g transform="translate(-1409 -53)">
      <rect id="Rectangle_8-117" data-name="Rectangle 8" width="10" height="10" transform="translate(1529 293)" fill="#5a5a5a"/>
    </g>
    <g transform="translate(-1379 -53)">
      <rect id="Rectangle_8-118" data-name="Rectangle 8" width="10" height="10" transform="translate(1529 293)" fill="#5a5a5a"/>
    </g>
    <g transform="translate(-1349 -53)">
      <rect id="Rectangle_8-119" data-name="Rectangle 8" width="10" height="10" transform="translate(1529 293)" fill="#5a5a5a"/>
    </g>
    <g transform="translate(-1319 -53)">
      <rect id="Rectangle_8-120" data-name="Rectangle 8" width="10" height="10" transform="translate(1529 293)" fill="#5a5a5a"/>
    </g>
    <g transform="translate(-1289 -53)">
      <rect id="Rectangle_8-121" data-name="Rectangle 8" width="10" height="10" transform="translate(1529 293)" fill="#5a5a5a"/>
    </g>
    <g transform="translate(-1259 -53)">
      <rect id="Rectangle_8-122" data-name="Rectangle 8" width="10" height="10" transform="translate(1529 293)" fill="#5a5a5a"/>
    </g>
    <g transform="translate(-1229 -53)">
      <rect id="Rectangle_8-123" data-name="Rectangle 8" width="10" height="10" transform="translate(1529 293)" fill="#5a5a5a"/>
    </g>
    <g transform="translate(-1199 -53)">
      <rect id="Rectangle_8-124" data-name="Rectangle 8" width="10" height="10" transform="translate(1529 293)" fill="#5a5a5a"/>
    </g>
    <g transform="translate(-1169 -53)">
      <rect id="Rectangle_8-125" data-name="Rectangle 8" width="10" height="10" transform="translate(1529 293)" fill="#5a5a5a"/>
    </g>
    <g transform="translate(-1139 -53)">
      <rect id="Rectangle_8-126" data-name="Rectangle 8" width="10" height="10" transform="translate(1529 293)" fill="#5a5a5a"/>
    </g>
    <g transform="translate(-1529 -23)">
      <rect id="Rectangle_8-127" data-name="Rectangle 8" width="10" height="10" transform="translate(1529 293)" fill="#5a5a5a"/>
    </g>
    <g transform="translate(-1499 -23)">
      <rect id="Rectangle_8-128" data-name="Rectangle 8" width="10" height="10" transform="translate(1529 293)" fill="#5a5a5a"/>
    </g>
    <g transform="translate(-1469 -23)">
      <rect id="Rectangle_8-129" data-name="Rectangle 8" width="10" height="10" transform="translate(1529 293)" fill="#5a5a5a"/>
    </g>
    <g transform="translate(-1439 -23)">
      <rect id="Rectangle_8-130" data-name="Rectangle 8" width="10" height="10" transform="translate(1529 293)" fill="#5a5a5a"/>
    </g>
    <g transform="translate(-1409 -23)">
      <rect id="Rectangle_8-131" data-name="Rectangle 8" width="10" height="10" transform="translate(1529 293)" fill="#5a5a5a"/>
    </g>
    <g transform="translate(-1379 -23)">
      <rect id="Rectangle_8-132" data-name="Rectangle 8" width="10" height="10" transform="translate(1529 293)" fill="#5a5a5a"/>
    </g>
    <g transform="translate(-1349 -23)">
      <rect id="Rectangle_8-133" data-name="Rectangle 8" width="10" height="10" transform="translate(1529 293)" fill="#5a5a5a"/>
    </g>
    <g transform="translate(-1319 -23)">
      <rect id="Rectangle_8-134" data-name="Rectangle 8" width="10" height="10" transform="translate(1529 293)" fill="#5a5a5a"/>
    </g>
    <g transform="translate(-1289 -23)">
      <rect id="Rectangle_8-135" data-name="Rectangle 8" width="10" height="10" transform="translate(1529 293)" fill="#5a5a5a"/>
    </g>
    <g transform="translate(-1259 -23)">
      <rect id="Rectangle_8-136" data-name="Rectangle 8" width="10" height="10" transform="translate(1529 293)" fill="#5a5a5a"/>
    </g>
    <g transform="translate(-1229 -23)">
      <rect id="Rectangle_8-137" data-name="Rectangle 8" width="10" height="10" transform="translate(1529 293)" fill="#5a5a5a"/>
    </g>
    <g transform="translate(-1199 -23)">
      <rect id="Rectangle_8-138" data-name="Rectangle 8" width="10" height="10" transform="translate(1529 293)" fill="#5a5a5a"/>
    </g>
    <g transform="translate(-1169 -23)">
      <rect id="Rectangle_8-139" data-name="Rectangle 8" width="10" height="10" transform="translate(1529 293)" fill="#5a5a5a"/>
    </g>
    <g transform="translate(-1139 -23)">
      <rect id="Rectangle_8-140" data-name="Rectangle 8" width="10" height="10" transform="translate(1529 293)" fill="#5a5a5a"/>
    </g>
    <g transform="translate(-1529 7)">
      <rect id="Rectangle_8-141" data-name="Rectangle 8" width="10" height="10" transform="translate(1529 293)" fill="#5a5a5a"/>
    </g>
    <g transform="translate(-1499 7)">
      <rect id="Rectangle_8-142" data-name="Rectangle 8" width="10" height="10" transform="translate(1529 293)" fill="#5a5a5a"/>
    </g>
    <g transform="translate(-1469 7)">
      <rect id="Rectangle_8-143" data-name="Rectangle 8" width="10" height="10" transform="translate(1529 293)" fill="#5a5a5a"/>
    </g>
    <g transform="translate(-1439 7)">
      <rect id="Rectangle_8-144" data-name="Rectangle 8" width="10" height="10" transform="translate(1529 293)" fill="#5a5a5a"/>
    </g>
    <g transform="translate(-1409 7)">
      <rect id="Rectangle_8-145" data-name="Rectangle 8" width="10" height="10" transform="translate(1529 293)" fill="#5a5a5a"/>
    </g>
    <g transform="translate(-1379 7)">
      <rect id="Rectangle_8-146" data-name="Rectangle 8" width="10" height="10" transform="translate(1529 293)" fill="#5a5a5a"/>
    </g>
    <g transform="translate(-1349 7)">
      <rect id="Rectangle_8-147" data-name="Rectangle 8" width="10" height="10" transform="translate(1529 293)" fill="#5a5a5a"/>
    </g>
    <g transform="translate(-1319 7)">
      <rect id="Rectangle_8-148" data-name="Rectangle 8" width="10" height="10" transform="translate(1529 293)" fill="#5a5a5a"/>
    </g>
    <g transform="translate(-1289 7)">
      <rect id="Rectangle_8-149" data-name="Rectangle 8" width="10" height="10" transform="translate(1529 293)" fill="#5a5a5a"/>
    </g>
    <g transform="translate(-1259 7)">
      <rect id="Rectangle_8-150" data-name="Rectangle 8" width="10" height="10" transform="translate(1529 293)" fill="#5a5a5a"/>
    </g>
    <g transform="translate(-1229 7)">
      <rect id="Rectangle_8-151" data-name="Rectangle 8" width="10" height="10" transform="translate(1529 293)" fill="#5a5a5a"/>
    </g>
    <g transform="translate(-1199 7)">
      <rect id="Rectangle_8-152" data-name="Rectangle 8" width="10" height="10" transform="translate(1529 293)" fill="#5a5a5a"/>
    </g>
    <g transform="translate(-1169 7)">
      <rect id="Rectangle_8-153" data-name="Rectangle 8" width="10" height="10" transform="translate(1529 293)" fill="#5a5a5a"/>
    </g>
    <g transform="translate(-1139 7)">
      <rect id="Rectangle_8-154" data-name="Rectangle 8" width="10" height="10" transform="translate(1529 293)" fill="#5a5a5a"/>
    </g>
    <g transform="translate(-1529 37)">
      <rect id="Rectangle_8-155" data-name="Rectangle 8" width="10" height="10" transform="translate(1529 293)" fill="#5a5a5a"/>
    </g>
    <g transform="translate(-1499 37)">
      <rect id="Rectangle_8-156" data-name="Rectangle 8" width="10" height="10" transform="translate(1529 293)" fill="#5a5a5a"/>
    </g>
    <g transform="translate(-1469 37)">
      <rect id="Rectangle_8-157" data-name="Rectangle 8" width="10" height="10" transform="translate(1529 293)" fill="#5a5a5a"/>
    </g>
    <g transform="translate(-1439 37)">
      <rect id="Rectangle_8-158" data-name="Rectangle 8" width="10" height="10" transform="translate(1529 293)" fill="#5a5a5a"/>
    </g>
    <g transform="translate(-1409 37)">
      <rect id="Rectangle_8-159" data-name="Rectangle 8" width="10" height="10" transform="translate(1529 293)" fill="#5a5a5a"/>
    </g>
    <g transform="translate(-1379 37)">
      <rect id="Rectangle_8-160" data-name="Rectangle 8" width="10" height="10" transform="translate(1529 293)" fill="#5a5a5a"/>
    </g>
    <g transform="translate(-1349 37)">
      <rect id="Rectangle_8-161" data-name="Rectangle 8" width="10" height="10" transform="translate(1529 293)" fill="#5a5a5a"/>
    </g>
    <g transform="translate(-1319 37)">
      <rect id="Rectangle_8-162" data-name="Rectangle 8" width="10" height="10" transform="translate(1529 293)" fill="#5a5a5a"/>
    </g>
    <g transform="translate(-1289 37)">
      <rect id="Rectangle_8-163" data-name="Rectangle 8" width="10" height="10" transform="translate(1529 293)" fill="#5a5a5a"/>
    </g>
    <g transform="translate(-1259 37)">
      <rect id="Rectangle_8-164" data-name="Rectangle 8" width="10" height="10" transform="translate(1529 293)" fill="#5a5a5a"/>
    </g>
    <g transform="translate(-1229 37)">
      <rect id="Rectangle_8-165" data-name="Rectangle 8" width="10" height="10" transform="translate(1529 293)" fill="#5a5a5a"/>
    </g>
    <g transform="translate(-1199 37)">
      <rect id="Rectangle_8-166" data-name="Rectangle 8" width="10" height="10" transform="translate(1529 293)" fill="#5a5a5a"/>
    </g>
    <g transform="translate(-1169 37)">
      <rect id="Rectangle_8-167" data-name="Rectangle 8" width="10" height="10" transform="translate(1529 293)" fill="#5a5a5a"/>
    </g>
    <g transform="translate(-1139 37)">
      <rect id="Rectangle_8-168" data-name="Rectangle 8" width="10" height="10" transform="translate(1529 293)" fill="#5a5a5a"/>
    </g>
  </g>
</svg>
